PathFileType	4	(X/Y/Z)	s05c0103.trc
DataRate	CameraRate	NumFrames	NumMarkers	Units	OrigDataRate	OrigDataStartFrame	OrigNumFrames
200	200	4	49	mm	200	0	2000
Frame#	Time	racr			lacr			c7			jug			rlel			rdr			llel			ldr			s2			lic			ric			lasi			rasi			rpsi			lpsi			rgt			lgt			rth1			rth2			rth3			rth4			rlfc			rsh1			rsh2			rsh3			rsh4			rlmal			rmmal			rcal			rtoe			rmt5			lth1			lth2			lth4			lth3			llfc			lmfc			lsh1			lsh2			lsh3			lsh4			llmal			lmmal			lcal			ltoe			lmt5			SBIKE			LBIKE			RBIKE			
		X1	Y1	Z1	X2	Y2	Z2	X3	Y3	Z3	X4	Y4	Z4	X5	Y5	Z5	X6	Y6	Z6	X7	Y7	Z7	X8	Y8	Z8	X9	Y9	Z9	X10	Y10	Z10	X11	Y11	Z11	X12	Y12	Z12	X13	Y13	Z13	X14	Y14	Z14	X15	Y15	Z15	X16	Y16	Z16	X17	Y17	Z17	X18	Y18	Z18	X19	Y19	Z19	X20	Y20	Z20	X21	Y21	Z21	X22	Y22	Z22	X23	Y23	Z23	X24	Y24	Z24	X25	Y25	Z25	X26	Y26	Z26	X27	Y27	Z27	X28	Y28	Z28	X29	Y29	Z29	X30	Y30	Z30	X31	Y31	Z31	X32	Y32	Z32	X33	Y33	Z33	X34	Y34	Z34	X35	Y35	Z35	X36	Y36	Z36	X37	Y37	Z37	X38	Y38	Z38	X39	Y39	Z39	X40	Y40	Z40	X41	Y41	Z41	X42	Y42	Z42	X43	Y43	Z43	X44	Y44	Z44	X45	Y45	Z45	X46	Y46	Z46	X47	Y47	Z47	X48	Y48	Z48	X49	Y49	Z49	
0	0.0000	432.935661	1333.887431	-141.980753	440.831741	1343.641050	-433.003223	428.305570	1414.990080	-288.550360	399.368011	1258.496930	-289.295573	506.233081	1094.490298	-36.599070	691.171670	919.532493	-95.896599	479.887658	1088.071765	-544.587152	626.527097	837.686595	-492.997312	-110.317968	1164.203484	-273.327517	35.742901	1162.636146	-416.311655	47.940112	1185.232969	-139.311377	82.059125	1108.699010	-382.925107	80.602637	1120.407677	-165.110827	-73.035881	1209.067917	-233.612152	-70.521209	1209.723639	-320.834381	-9.163603	1059.889406	-100.099379	-39.864748	1066.979073	-444.047181	91.967763	997.181396	-86.926406	179.132796	978.318901	-87.401097	243.213734	918.310714	-92.238284	194.900197	1010.323262	-98.650459	374.612057	838.878864	-121.219306	314.078742	744.845425	-97.459605	309.756483	657.292590	-106.944333	263.069916	583.862281	-111.443834	337.994017	650.127885	-132.057628	228.914270	453.486458	-121.606033	239.453017	486.943209	-198.806912	158.865830	415.317897	-165.440993	454.608957	418.832803	-159.693024	356.236402	386.218794	-94.921412	38.566644	948.486206	-470.489920	109.879933	901.593722	-475.500248	138.854651	922.434340	-463.786265	148.393719	819.034513	-480.922229	224.615787	689.779251	-458.475514	219.259583	681.223656	-348.409759	128.199022	604.884093	-473.818571	89.156516	527.693413	-458.008379	14.240529	480.619233	-451.748896	114.974387	510.115314	-435.639178	-59.217438	379.900698	-436.780322	-21.976805	405.693051	-363.070324	-131.757586	361.142660	-391.278059	144.252277	260.495623	-401.841502	32.274370	264.620305	-462.319339	-175.486677	897.097759	-273.979155	-53.478455	79.326517	-474.600050	-53.146438	78.844222	-76.955259	
1	0.0050	432.901279	1333.668938	-141.828389	440.765664	1343.555932	-433.117038	428.355116	1414.958431	-288.512662	399.455736	1258.434672	-289.346181	505.853449	1094.213216	-36.234501	691.038112	919.492338	-95.654043	479.605550	1087.921180	-544.815029	626.592824	837.693944	-493.186926	-110.233216	1164.214512	-273.364480	35.795768	1162.676912	-416.362482	48.022147	1185.242687	-139.335462	82.148180	1108.747226	-382.985779	80.689056	1120.421539	-165.135512	-72.964564	1209.096634	-233.649967	-70.441495	1209.721016	-320.859506	-9.111051	1059.905479	-100.132997	-39.819161	1066.992365	-444.068495	91.998971	997.156456	-86.949707	179.150751	978.252458	-87.399130	243.246184	918.281219	-92.194176	194.928024	1010.274548	-98.620820	374.559431	838.716700	-121.365077	314.103491	744.777578	-97.432441	309.765118	657.209972	-106.927257	263.068704	583.816515	-111.417819	338.015523	650.103152	-131.967973	228.932237	453.437347	-121.594142	239.450024	486.834803	-198.822633	158.859004	415.252659	-165.417534	454.614827	418.785246	-159.696386	356.246566	386.157473	-94.932481	38.636338	948.514355	-470.499031	109.950622	901.635481	-475.564857	138.940421	922.490040	-463.823607	148.472317	819.095582	-480.995020	224.683415	689.800238	-458.577142	219.379493	681.261497	-348.500647	128.256468	604.945577	-473.877375	89.212515	527.759625	-458.105064	14.281150	480.696761	-451.783156	115.019730	510.160428	-435.698907	-59.206436	379.961207	-436.801033	-21.940985	405.783669	-363.109741	-131.736448	361.245127	-391.301686	144.231277	260.541758	-401.842145	32.272466	264.659901	-462.325701	-175.123537	897.712722	-272.241417	-53.485651	79.326582	-474.623682	-53.136363	78.859322	-76.948858	
2	0.0100	432.828672	1333.427433	-141.701438	440.672051	1343.504465	-433.224188	428.413293	1414.927475	-288.478264	399.549877	1258.397599	-289.383489	505.550821	1093.943419	-35.873124	690.929271	919.570207	-95.463331	479.361643	1087.823025	-545.017652	626.358928	837.704863	-493.283257	-110.154172	1164.230977	-273.375749	35.885109	1162.692016	-416.365247	48.074208	1185.270777	-139.354540	82.228676	1108.795881	-383.040449	80.759509	1120.384169	-165.167075	-72.888694	1209.091537	-233.657628	-70.375733	1209.724107	-320.876382	-9.058283	1059.901758	-100.168120	-39.749431	1067.013151	-444.075777	92.042911	997.117067	-86.961595	179.177612	978.212640	-87.380866	243.248683	918.198114	-92.232432	194.961261	1010.252928	-98.586706	374.578715	838.709168	-121.316635	314.132751	744.738257	-97.388262	309.794596	657.151244	-106.892913	263.067883	583.762680	-111.397819	338.026025	650.005831	-131.975537	228.938204	453.369073	-121.571933	239.474114	486.789068	-198.791457	158.862901	415.210075	-165.385779	454.625216	418.754628	-159.689591	356.271459	386.109570	-94.926609	38.716429	948.567015	-470.515277	110.024591	901.680718	-475.614466	139.017937	922.532116	-463.887263	148.548887	819.149512	-481.037431	224.770036	689.821884	-458.644494	219.464864	681.294822	-348.545982	128.298435	605.001720	-473.943700	89.250850	527.815133	-458.183547	14.307510	480.783105	-451.832765	115.059809	510.205352	-435.784442	-59.183290	380.028839	-436.818327	-21.873114	405.850894	-363.160558	-131.716548	361.336097	-391.309457	144.221599	260.575440	-401.852975	32.275424	264.692509	-462.311870	-174.988007	897.765009	-272.349043	-53.490538	79.334326	-474.629993	-53.134781	78.847543	-76.965179	
3	0.0150	432.775844	1333.148202	-141.554780	440.577392	1343.453288	-433.337578	428.453338	1414.862355	-288.402295	399.507528	1257.992213	-289.655037	505.116904	1093.978242	-35.315666	690.839749	919.562875	-95.110923	479.427904	1087.832610	-545.476364	626.453857	837.691228	-493.265094	-110.065535	1164.277647	-273.402754	37.597122	1163.483155	-418.604357	47.510869	1185.686596	-141.125861	82.196827	1109.379832	-383.335728	80.808607	1120.437280	-165.176366	-72.829098	1209.098811	-233.681966	-70.293041	1209.730840	-320.884891	-8.994841	1059.913986	-100.176427	-39.690968	1067.118140	-444.317188	92.045995	997.095057	-86.954608	179.299194	978.072784	-87.473651	243.256674	918.147882	-92.247589	194.999974	1010.207797	-98.568676	374.598361	838.657531	-121.266361	314.163177	744.675535	-97.361140	308.543000	656.050429	-107.506974	263.113123	583.711569	-111.364475	337.335832	649.672209	-132.001073	228.643313	453.840830	-121.275576	239.877622	486.540831	-198.759291	158.893433	415.143843	-165.406627	454.648398	418.704313	-159.683784	356.291185	386.058482	-94.916707	38.792403	948.603680	-470.531855	110.298098	901.118311	-475.394967	138.926525	922.495238	-463.701704	148.604364	819.198498	-481.110116	224.862045	689.854662	-458.745121	219.576021	681.323093	-348.640877	128.371135	605.047116	-473.995239	89.297367	527.869093	-458.253757	14.328586	480.858705	-451.877494	114.397209	510.033170	-435.406411	-59.184690	380.241601	-436.932355	-21.844703	405.900150	-363.185767	-131.606496	360.988302	-390.897282	144.211578	260.602698	-401.844947	32.272503	264.746621	-462.326660	-174.995678	897.701283	-272.253664	-53.485170	79.339688	-474.630078	-53.147228	78.832338	-76.951275	
